<svg width="19" height="17" viewBox="0 0 19 17" fill="none" xmlns="http://www.w3.org/2000/svg">
<path d="M18.075 0.375C18.1083 0.375 18.125 0.425 18.125 0.525C18.125 0.624999 18.1083 0.674999 18.075 0.674999C17.4083 0.674999 16.8833 0.941666 16.5 1.475C16.1167 1.99167 15.925 2.69167 15.925 3.575V16.375C15.925 16.425 15.8833 16.4583 15.8 16.475C15.7333 16.4917 15.6833 16.4833 15.65 16.45L3.925 3.1V12.825C3.925 13.7083 4.10833 14.4083 4.475 14.925C4.84167 15.4417 5.35 15.7 6 15.7C6.03333 15.7 6.05 15.75 6.05 15.85C6.05 15.95 6.03333 16 6 16C5.53333 16 5.175 15.9917 4.925 15.975L3.575 15.95L2.025 15.975C1.74167 15.9917 1.33333 16 0.8 16C0.75 16 0.725 15.95 0.725 15.85C0.725 15.75 0.75 15.7 0.8 15.7C1.53333 15.7 2.10833 15.4417 2.525 14.925C2.95833 14.4083 3.175 13.7083 3.175 12.825V2.25C2.625 1.65 2.15 1.24167 1.75 1.025C1.36667 0.791666 0.966667 0.674999 0.55 0.674999C0.516667 0.674999 0.5 0.624999 0.5 0.525C0.5 0.425 0.516667 0.375 0.55 0.375L1.6 0.4C1.81667 0.416666 2.13333 0.424999 2.55 0.424999L4.45 0.4C4.68333 0.383333 4.96667 0.375 5.3 0.375C5.43333 0.375 5.53333 0.408333 5.6 0.474999C5.66667 0.541666 5.78333 0.683332 5.95 0.899999C6.23333 1.28333 6.43333 1.54167 6.55 1.675L15.2 11.65V3.575C15.2 2.675 15.0167 1.96667 14.65 1.45C14.2833 0.933333 13.775 0.674999 13.125 0.674999C13.0917 0.674999 13.075 0.624999 13.075 0.525C13.075 0.425 13.0917 0.375 13.125 0.375L14.2 0.4C14.7333 0.433333 15.1833 0.449999 15.55 0.449999C15.8833 0.449999 16.35 0.433333 16.95 0.4L18.075 0.375Z" fill="black"/>
</svg>
